# xmcd
#
# Track frame offsets:
#	150
#	12411
#	22669
#	36736
#	51278
#	66977
#	82035
#	97649
#	110734
#	124202
#	140120
#	153925
#	165179
#	178381
#	192491
#	205124
#	218082
#	231548
#	248217
#	262838
#
# Disc length: 3737
#
# Revision: 1
# Processed by: cddbd v1.5.1PL0 Copyright (c) Steve Scherf et al.
# Submitted via: OrangeCD 5.2
# Normalized: r0:DSETVAR1
#
DISCID=200e9714
DTITLE=Various Artist - The Motown Collection 1969-1971 Disc 2
DYEAR=2001
DGENRE=Motown Compilation
TTITLE0=Smokey Robinson and The Miracles - Second That Emotion
TTITLE1=Marvin Gaye and Tammi Terrell - Ain't Nothing Like The Real Thing
TTITLE2=Diana Ross and The Supremes and The Temptations - I'm Gonna Make You Love Me
TTITLE3=Marvin Gaye - I Heard It Through The Grapevine
TTITLE4=The Temptations - Cloud Nine
TTITLE5=Edwin Starr - Twenty-Five Miles
TTITLE6=David Ruffin - My Whole World Ended The Moment You Left Me)
TTITLE7=The Temptations - I Can't Get Next To You
TTITLE8=The Jackson 5 - I Want You Back
TTITLE9=Diana Ross and The Supremes - Someday We'll Be Together
TTITLE10=Stevie Wonder - Yester-Me, Yester-You Yesterday
TTITLE11=Jr. Walker and The All-Stars - What Does It Take (To Win Your Love)
TTITLE12=Marvin Gaye - Too Busy Thinking About My Baby
TTITLE13=The Spinners - It's A Shame
TTITLE14=Rare Earth - Get Ready
TTITLE15=Stevie Wonder - My Cherie Amour
TTITLE16=Smokey Robinson &The Miracles - The Tears Of A Clown
TTITLE17=The Jackson 5 - I'll Be There
TTITLE18=Diana Ross and The Supremes and The Four Tops - River Deep. Mountain High
TTITLE19=The Temptations - Just My Imagination (Running Away With Me)
EXTD=
EXTT0=
EXTT1=
EXTT2=
EXTT3=
EXTT4=
EXTT5=
EXTT6=
EXTT7=
EXTT8=
EXTT9=
EXTT10=
EXTT11=
EXTT12=
EXTT13=
EXTT14=
EXTT15=
EXTT16=
EXTT17=
EXTT18=
EXTT19=
PLAYORDER=
